<?xml version="1.0"?>
<svg xmlns="http://www.w3.org/2000/svg" viewBox="0 0 16 16">
    <path style="line-height:normal;text-indent:0;text-align:start;text-decoration-line:none;text-decoration-style:solid;text-decoration-color:#000;text-transform:none;block-progression:tb;isolation:auto;mix-blend-mode:normal" d="M 1 1 L 1 2 L 3 2 C 3.2164521 2 3.3994354 2.1402681 3.46875 2.34375 L 4.4023438 10.673828 C 4.4873768 11.428679 5.1353675 12.005859 5.8945312 12.005859 A 1 1 0 0 0 5 13 A 1 1 0 0 0 6 14 A 1 1 0 0 0 7 13 A 1 1 0 0 0 6.0996094 12.005859 L 10.896484 12.005859 A 1 1 0 0 0 10 13 A 1 1 0 0 0 11 14 A 1 1 0 0 0 12 13 A 1 1 0 0 0 11.099609 12.005859 L 12 12.005859 L 12 11.005859 L 5.8945312 11.005859 C 5.635695 11.005859 5.4254518 10.819649 5.3964844 10.5625 L 5.3339844 10 L 11.679688 10 C 12.391488 10 13.010213 9.4928251 13.150391 8.7949219 L 14.109375 4 L 13 4 L 13 4.4511719 L 12.169922 8.5976562 C 12.122099 8.8357531 11.921886 9 11.679688 9 L 5.2207031 9 L 4.4472656 2.0996094 L 4.4316406 2.0546875 C 4.2372134 1.4295292 3.654895 1 3 1 L 1 1 z M 6.7324219 2.0253906 L 6.0253906 2.7324219 L 7.7929688 4.5 L 6.0253906 6.2675781 L 6.7324219 6.9746094 L 8.5 5.2070312 L 10.267578 6.9746094 L 10.974609 6.2675781 L 9.2070312 4.5 L 10.974609 2.7324219 L 10.267578 2.0253906 L 8.5 3.7929688 L 6.7324219 2.0253906 z" font-weight="400" font-family="sans-serif" white-space="normal" overflow="visible"/>
</svg>
